<?xml version="1.0" encoding="utf-8"?>
<!-- Generator: Adobe Illustrator 13.0.0, SVG Export Plug-In . SVG Version: 6.00 Build 14948)  -->
<!DOCTYPE svg PUBLIC "-//W3C//DTD SVG 1.0//EN" "http://www.w3.org/TR/2001/REC-SVG-20010904/DTD/svg10.dtd">
<svg version="1.0" id="Layer_1" xmlns="http://www.w3.org/2000/svg" xmlns:xlink="http://www.w3.org/1999/xlink" x="0px" y="0px"
	 width="550.472px" height="767.962px" viewBox="0 0 550.472 767.962" enable-background="new 0 0 550.472 767.962"
	 xml:space="preserve">
<g>
	<path d="M363.849,586.462h-196.5v-53h196.5V586.462z"/>
	<g>
		<path stroke="#000000" stroke-width="0.25" d="M432.685,597.449c3.693-34.06-69.336-52.318-165.336-28.986
			c-100-25.332-165.02-6.15-156.547,29.631c21.01,88.725,91.881,93.703,165.215,88.369
			C351.349,693.13,425.121,667.208,432.685,597.449z"/>
		<g>
			<g>
				<path fill="none" d="M281.736,598.265c113.332-37.662,192.051-107.231,175.994-155.541"/>
				<g>
					<g>
						<g>
							<path d="M458.966,448.925c0.189-0.156,0.258-0.364,0.408-0.549C459.605,448.798,459.591,449.02,458.966,448.925z"/>
							<path d="M459.708,442.066c0.451,1.637,1.354,4.331-0.334,6.311C458.662,446.889,454.654,444.269,459.708,442.066z"/>
							<path d="M450.357,450.585l1.352-1.908C453.306,449.358,450.757,449.688,450.357,450.585z"/>
							<path d="M455.253,449.128l1.971-0.243l-1.77,1.308L455.253,449.128z"/>
							<path d="M416.976,546.067c0.701,0.538,1.391,1.184,2.055,2.195L416.976,546.067z"/>
							<path d="M407.578,541.962c-0.537,0.001-0.865,0.075-1.121,0.163C406.601,541.827,406.923,541.842,407.578,541.962z"/>
							<path d="M419.998,542.588l-0.512,0.766C419.525,542.96,419.689,542.66,419.998,542.588z"/>
							<path d="M452.658,497.196c1.688,0.137,3.174,0.132,4.26,0.094C457.314,499.556,454.505,497.884,452.658,497.196z"/>
							<path d="M373.589,530.568l0.713,1.434C373.736,531.516,373.271,530.992,373.589,530.568z"/>
							<path d="M390.673,521.462c0.564,0.723,0.938,1.291,1.172,1.731l-0.412-0.167L390.673,521.462z"/>
							<path d="M420.65,537.869l-0.076-0.166l1.184,0.3C421.656,538.48,421.291,538.427,420.65,537.869z"/>
							<path d="M367.191,532.069c-0.705-0.605-1.518-1.404-2.5-2.546C365.578,529.831,366.634,530.99,367.191,532.069z"/>
							<path d="M406.361,542.202l-0.045-0.052l0.141-0.025L406.361,542.202z"/>
							<path d="M396.769,518.943c-0.432,0.001-0.799,0.046-1.291-0.011C395.576,518.373,396.14,518.516,396.769,518.943z"/>
							<path d="M452.658,497.196l-1.404-0.104C451.47,496.842,451.99,496.949,452.658,497.196z"/>
							<path d="M463.076,454.227c0.053,0.714-1.076,0.901-2.225,1.039C461.367,454.889,462.064,454.537,463.076,454.227z"/>
							<path d="M286.55,607.534l-0.27,0.046C286.361,607.459,286.457,607.473,286.55,607.534z"/>
							<path d="M312.324,602.676c0.24,0.283,0.508,0.608,0.783,1.056C313.05,604.196,312.666,603.56,312.324,602.676z"/>
							<path d="M318.64,558.191c-0.492,2.758-3.893-0.913-5.221-0.589l1.213,1.619l-1.91-0.955l1.139,2.587
								c-2.604-0.308-4.086,3.462-6.59-0.36l1.996,4.07l-3.607-2.379l2.447,2.293c-2.145,1.958-7.305,0.229-7.83,0.446l0.854,1.476
								c-0.094,0.967-0.834,0.062-1.467-0.277l1.266,2.215c-4.072,0.841-3.059,6.648-8.352,5.741
								c-0.971,1.003,0.938,0.522,1.457,1.842c0.055,2.119-2.145,0.889-2.857-0.045c1.705,3.576,3.139,1.763,2.836,5.251
								c-1.674-1.454,1.953,3.173-0.082,3.096l-2.436-4.499c-0.674,1.187,1.162,3.787-0.557,3.896
								c-2.506-1.422,0.189-6.189-2.883-5.844c-1.271,0.842,0.934,12.11-2.787,10.512c-1.572,3.33,3.861,7.006,0.053,6.942
								l3.26,2.391c-0.096,1.546,1.086,3.818-0.75,3.314c-1.105-1.689-2.834-3.766-3.707-3.723
								c4.438,2.521-0.979,6.431,3.613,10.116l-1.188,0.208c0.201,0.137,0.393,0.587,0.439,0.979l-1.391,0.846
								c1.271,0.729,3.637,0.411,3.799,4.296l-1.902,1.646c1.473,2.446,1.031,3.838,1.873,5.934l8.33,2.865
								c-0.814-1.506-2.119-2.214-2.322-3.951c1.268-2.001,2.434,2.386,3.316-0.378l-1.467-1.854
								c0.412,0.757,0.732,0.931,0.471,1.331c-0.102,1.562-0.91,0.051-1.381-1.28c-0.361-2.887,1.916-1.652,3.068,0.037
								c2.006-1.079-1.275-4.974-1.098-5.947c2.689,4.09,3.457-1.401,5.508,0.195l-1.895-2.586c0.301-4.097,2.773-1.734,4.094-1.056
								l-1.246-2.236c2.387-0.371,0.42-8.719,5.295-0.995l-0.834-1.481c0.617-1.087,1.279-3.379,3.113-1.22
								c-0.369-0.999-0.695-2.281-0.449-2.709c1.754,3.035,1.723,0.225,2.803-0.872c-1.207-0.496-2.59-4.773-3.9-5.434
								c0.289-5.066,3.691,3.937,5.373,3.206c0.15-2.536-1.854-1.969-2.725-3.44c3.559,1.243,1.32-11.79,6.395-4.151v3.107
								c1.777,1.363,2.332,1.109,1.881,0.383c-0.221,0.41-0.658-0.322-1.102-1.048c1.271-5.569,7.459,4.058,9.883,0.967
								c-0.91-1.438-1.578-1.745-2.166-3.033c0.719-2.238,4.92,7.352,5.848,3.122l-1.258-1.584c0.297-1.415,2.023,0.9,2.154,1.468
								c-3.086-6.966,5.109-1.888,2.479-11.69c2.881,3.273,7.535,4.692,7.518,2.152c-0.596-4.784-3.436-3.949-4.768-8.04
								c1.064-0.539,3.482,2.974,4.438,0.836c1.918,3.779,0.566,9.353,4.719,9.983l-0.574-2.268
								c-0.188,0.432-0.246,1.428-0.936,1.155c-1.992-1.81-0.719-2.823-1.021-3.954l3.861-0.49c2.271,3.919-0.189,3.966,0.113,5.097
								c2.225-2.205,2.361-9.608,6.113-8.229l-1.006-1.379c4.846,1.788-2.096-8.25,3.719-3.119c0.715-1.716-2.717-3.986-0.979-5.312
								c0.523-0.307,1.021,1.364,1.201,1.923c3.119,0.157-1.027-4.317,3.115-1.861l-2.768-3.936
								c4.088,1.479,10.934,7.25,12.148,4.188c-1.973-3.104-3.178-2.044-5.104-4.174c6.322,4.112,7.506-3.449,12.078-1.992
								c0.803,3.18,5.123,5.446,4.689,8.748c-2.945-3.815-2.154-0.628-3.393-0.512c6.979,8.017,3.811-8.251,9.021-0.881
								l-1.559-3.387c0.715,0.202,3.293,1.875,3.164,3.328l1.795-3.943c-2.604-1.654-8.262-5.677-6.838-1.865
								c-2.939-2.783-0.148-2.97-3.305-6.304c5.279,3.938-0.168-2.962,2.592-3.123c1.967,5.104,5.977,4.748,7.305,6.953
								c0.133-1.278,3.002-0.222,4.602,0.891c1.506-0.396,1.846-5.78,4.775-5.629c-1.68-0.858-4.064-1.884-5.906-4.736
								c2.016,0.945,3.004,0.187,0.896-3.174c-7.332-3.687,4.158,8.244-1.496,6.4c-3.266-3.223-4.688-3.601-6.945-3.704
								c-0.738-2.605-1.664-3.339-3.117-6.126c7.164,6.712,5.271-2.399,10.293-0.226c2.611,1.562,5.301,6.979,8.24,6.17
								l-0.324,3.793c0.695-3.721,2.146,1.915,4.621,1.458l-2.531-1.984c0.764-1.294,1.504-1.124,3.441,0.221l-3.758-3.172
								c0.262-0.898,0.98-2.227,2.672,0.043c-0.531-1.054-1.033-1.837-1.514-2.489c0.586,0.548,1.168,0.747,1.768,0.102
								c-0.732-0.134-0.84,0.324-1.693-0.805c3.299-1.071-2.477-4.6-0.588-5.444c-0.918-0.689-1.291-2.132-1.08-3.021
								c4.502,6.033,8.322,4.384,11.74,6.938l-0.08-0.073l4.082,0.601c-0.832-0.121-1.629-2.104-1.49-3.24l-0.084,0.116
								c-0.045-1.458-5.943-5.699-2.535-5.648l2.484,0.85c-0.359-0.057-0.906-1.086-1.174-1.606l2.395,0.641
								c-2.885-6.769,5.709,0.327,5.439-3.979c-0.176,0.934-1.387,1.27-2.518-0.764c-0.188-0.972,0.924-0.83,1.955-0.259
								l-0.66-0.542l6.768,0.104c-2.021-1.586-4.18,0.131-5.191-2.819c-1.775-3.022,1.691-1.278,2.525-1.69
								c1.271,1.521,1.248,3.929,3.197,3.586c-0.506-0.861-0.752-3.416-2.268-3.954c2.645,0.374,5.213-0.531,8.812,0.896
								c-0.258-0.966-1.383-1.009-1.76-1.022l0.309,0.493c-1.51-0.056-3.668-3.529-3.678-0.635c-4.635-4.569,0.791-3.309,1.41-5.193
								l-5.082-1.209c-3.047-9.468,8.025-7.051,11.207-10.638c0.646,2.363-1.549,1.95,2.357,5.202
								c3.773-0.638,2.678-1.082,5.406-2.675l-0.371,0.021c-0.994-2.773,4.188-1.373,1.254-4.987
								c-2.607-1.215,0.703,3.37-3.732-0.156l2.607-2.625c-3.365-1.146-2.59,2.619-4.09,3.217c-0.395,0.979,1.861-1.074,4.439,1.603
								c-2.332,2.629-5.699,0.831-10.764-1.403c-3.6-1.843-2.109-3.688-1.746-4.154c5.834,2.29,9.934,1.388,9.869-2.842l-2.391-4.01
								c4.072,0.987,9.93,6,10.938,2.876l-3.07-0.987c-0.613-1.233-0.701-1.814-0.496-2.064c-2.676-0.239-5.605-0.636-8.203-1.15
								c-4.471-5.106,5.354-1.841,7.773-3.379c-0.768-0.336-1.438,0.255-2.988-0.443c0.598-3.755,9.227-3.144,11.568-5.48
								c-1.961-2.396-2.85,1.306-6.314-1.247c2.162-0.566-0.361-3.688,3.309-2.343c-5.328-1.879,1.02-3.244-4.885-2.978
								c-0.018-5.523,6.535-8.66,10.926-13.703c-1.709-0.064-3.088-0.364-4.164-0.81c-0.209,1.783-2.609,3.917-6.543,3.623
								c-2.506-1.771,4.379-1.422,2.83-2.193c-1.506,0.206-1.748,1.26-4.477,0.518c-2.74-2.082,1.863-1.645,2.576-2.517l1.295,0.828
								c4.293-2.257,10.006,0.095,9.078-3.876c-3.309-1.762-2.807-0.301-7.021-0.823c1.721-0.685-2.711-3.438,1.854-4.059
								l0.201,2.098c1.33-1.391,1.396-2.807,2.783-3.891c-0.91,0.124-1.846,0.22-2.195,0.528c1.332-1.188,0.941-2.71,3.732-3.572
								l-4.547,0.029c2.02,0.499,2.459,2.733-0.066,3.095c-3.982-0.141-1.568-2.125-1.914-3.016
								c-1.162,4.046-8.104,3.696-5.42,6.674l1.43-0.388c3.361,2.245-2.674,3.523-2.785,4.972c-0.834-0.621-2.447-1.007-3.232-0.962
								c2.854,4.033-0.789,6.698-0.375,11.271l-4.615-0.659l3.074,1.461c0.521,2.489-4.541-1.606-4.744-0.32
								c0.176-0.438,0.652-0.117,1.463,0.152c-4.387,0.364,2.299,2.553,0.723,3.264c3.6,1.109,2.346-1.756,6.426,0.909
								c-4.586,0.56-4.561,4.979-11.84,1.105c0.531,5.504-6.883,7.302-9.77,9.663c0.812,1.292,1.08,0.442,1.861,1.297
								c-4.561-1.78-0.633,6.059-3.941,3.359c0.412,1.312,2.568,3.589,3.295,4.49c-2.215-0.572-3.68-0.312-4.994,0.221l1.5,0.099
								l0.363,0.462l-2.131-0.142l-0.158-0.217c-3.012,1.484-4.818,4.866-10.08,3.588c3.113,0.825,3.287,3.945,5.014,4.59
								c-5.748-3.735-8.312-1.531-9.971,0.875c0.959,1.041,1.557,2.03,2.557,2.638l-3.074-0.942l1.291,1.114
								c-1.424,2.962-8.797-0.696-8.191,3.008c1.428-0.167,2.348,0.91,3.889,2.56c-1.719,1.3-3.436,2.48-6.65,2.473
								c0.359,0.242,0.729,0.555,1.047,0.956c-0.152,0.879-1.807,0.069-2.836-0.156l2.012,2.729
								c-1.959-0.421-2.285,1.952-5.146,0.722c1.734,3.344-5.018-0.502-5.525,1.767c-1.045-0.271,3.5,2.299,1.811,3.241
								c-4.516-5.814-2.148,1.29-6.85-5.087l0.316,3.315l-2.553-3.025c3.078,6.901-3.609-1.498-4.004,1.567
								c0.564,0.645,0.908,0.75,1.137,1.278c-1.021-0.306-2.586,0.127-2.725-2.217c-0.893,0.646-5.01,1.185-1.316,3.747
								c-1.348-1.826,0.992-1.073,2.01-0.766c1.812,2.877-0.326,2.688,1.354,6.01c-0.252-0.283-0.758-0.646-1.197-1.025l0.947,1.893
								c-3.777-1.937-4.193,1.43-8.061-1.823c0.488,0.938,0.607,1.82-0.133,2.005l-2.277-3.587l-1.824,1.247l4.131,4.697
								c-1.445,2.396-6.609-2.742-8.848-2.624c3.154,6.361-4.693-0.3-3.059,5.996l2.332,0.87c-3.576,0.576-1.969,4.534-5.928,3.983
								c1.184-3.384,1.932-2.161,2.406-9.1c-1.926,4.49-7.76-0.2-8.885,5.095c1.012,1.37,2.334,1.908,2.387,3.848
								c-2.359-2.884-2.934,1.695-4.475-2.312c-0.297,1.792,1.393,5.401,1.057,6.241l-5.727-2.882l0.488,0.697
								c-1.275,11.712-13.551-0.62-17.422,5.812l1.062,2.003l-2.842-2.354c2.059,1.495,0.695,2.811,1.424,4.651l-5.77-2.837
								C316.015,555.383,318.072,559.411,318.64,558.191z M367.257,534.623l0.98-0.253c0.051-0.285,0.189-0.438,0.619-0.165
								l-0.619,0.165C368.117,535.109,368.753,536.821,367.257,534.623z M438.072,482.987l-1.211,0.979
								c-0.084-0.409,1.639-0.583-0.26-1.256C436.949,482.679,437.208,482.222,438.072,482.987z M381.033,559.092l1.812,1.501
								l-1.014-2.73L381.033,559.092z M369.455,566.223l2.092,0.707l-0.178-0.556l-2.109-0.703L369.455,566.223z M344.261,553.226
								c0.154,0.106,0.281,0.178,0.5,0.376C344.634,553.547,344.457,553.41,344.261,553.226c-1.893-1.317,0.072,3.423-2.969-0.572
								C340.308,548.41,342.908,551.97,344.261,553.226z M368.396,540.684c-1.498-2.391-3.1-1.979-4.531-3.433
								c-0.27,0.854,1.818,2.525,2.908,3.844c-0.139,0.424-0.475,0.315-1.162,0.076
								C368.912,546.096,365.644,538.821,368.396,540.684z M393.683,524.471l-0.096,0.444l2.355,1.003L393.683,524.471z
								 M400.132,523.126c2.82,2.42,3.865,0.767,5.369,0.596c-1.73-2.624-5.018-4.63-5.943-3.464
								C396.501,519.164,402.066,524.442,400.132,523.126z M356.933,552.984c1.344,0.507,5.688,5.482,5.598,1.553l-2.041-0.736
								l0.148-0.43l-1.557-2.021C362.761,557.055,357.767,552.813,356.933,552.984z M411.017,516.395
								c2.395,0.816,5.951,1.264,7.521,3.296c-3.195-3.603-6.021-3.985-6.422-3.593C412.066,516.54,411.71,516.506,411.017,516.395z
								 M414.847,520.158c-0.129,0.901,2.109,3.065-0.35,2.252c-1.52-2.062-5.971-6.409-6.016-3.688
								c3.994,2.484,5.576,4.1,8.482,4.501L414.847,520.158z M406.589,514.317l-0.131,0.974c0.648,2.076,4.031,6.366-0.439,3.007
								l0.439-3.007C406.302,514.807,406.298,514.438,406.589,514.317z M417.763,504.225l-1.688-0.653
								C416.699,503.191,417.275,503.639,417.763,504.225l1.439,0.563C419.3,507.139,418.705,505.381,417.763,504.225z
								 M408.412,514.162l1.916-1.067C410.226,514.001,410.017,515.796,408.412,514.162z M420.47,507.576
								c-0.422,0.854-1.654,2.993-1.629,2.543C417.21,508.143,419.066,506.999,420.47,507.576z M448.796,472.054l2.98,1.801
								l0.688-1.186L448.796,472.054z M447.05,486.646l-0.646,0.558l1.279,1.18L447.05,486.646z M439.05,501.062
								c-0.527-0.515-1.283-1.067-1.967-1.464c-0.373,0.003-0.844-0.118-1.451-0.486c0.119-0.17,0.732,0.074,1.451,0.486
								c0.971,0.004,1.199-0.973,0.631-1.934c-1.479-0.838-1.791,0.078-2.885-0.337c-2.365-3.494,9.109,1.393-0.656-4.895
								c1.469,0.429,5.027,0.627,6.266,2.354C439.011,495.685,438.126,498.737,439.05,501.062c0.441,0.436,0.734,0.853,0.631,1.128
								C439.406,501.86,439.212,501.467,439.05,501.062z M426.792,518.168c-0.619,0.213-1.043,0.144-1.391-0.049
								c-0.955-0.26-2.119-0.93-3.111-2.178c1.824,0.16,2.186,1.644,3.111,2.178C425.984,518.273,426.498,518.321,426.792,518.168z
								 M430.453,521.705l-5.367-1.322l2.436,1.126l-2.922-0.242C426.908,523.377,430.851,524.588,430.453,521.705z
								 M425.611,523.351l-2.176-1.741l2.377,1.644L425.611,523.351l0.498,0.398l-3.504,1.062L425.611,523.351z M396.351,540.065
								c4.566,8.461,6.324,3.823,9.553,7.108c-1.773-2.663-3.734-7.379-6.217-5.388c0.297-4.224,5.055,3.925,1.609-3.469
								c-0.689,1.279-3.424,0.22-3.764,0.133l1.027-1.193C394.39,533.025,398.39,541.013,396.351,540.065z M383.681,551.136
								l-2.053,0.361l1.84-0.892L383.681,551.136z M340.861,577.334c1.115,1.963,0.461,6.765-1.92,3.212
								C339.878,579.423,341.291,579.01,340.861,577.334z M320.888,585.672l2.861,0.854c1.607,4.863-1.98,0.604-2.621,1.836
								C319.794,586.173,321.228,587.383,320.888,585.672z M307.082,591.258l-0.977-0.503l2.553,4.438L307.082,591.258z
								 M312.998,599.473c-0.24,0.414-2.119-0.007-2.52-2.3L312.998,599.473z M297.726,601.603l2.359,3.924l-0.807,0.636
								L297.726,601.603z M297.542,598.319c0.447,0.382,0.914,1.298,1.383,2.348c0.891,0.947,1.84,1.045,2.17-0.446
								c-0.908-2.067-0.961-0.515-1.621-0.864c0.246-0.396,0.303-1.953,1.271-1.437c0.619,4.028,1.178,3.797,2.271,7.016
								c-1.357,2.812-2.771-1.313-4.092-4.269C298.404,600.115,297.902,599.289,297.542,598.319z M305.199,594.533
								c0.123-0.489,0.197-1.001,0.1-1.576l0.432,0.749C305.976,595.183,305.611,594.964,305.199,594.533
								c-0.141,0.526-0.348,1.028-0.57,1.516c0.787,2.765,2.904,4.036,3.855,5.377c-0.975-0.498-2.549-2.867-2.842-0.925
								c0.418,0.745,0.51,1.327,1.066,1.078l-1.031,1.047c-2.842-3.204-1.904-4.864-1.051-6.577
								c-0.186-0.609-0.318-1.26-0.332-2.041C304.355,593.538,304.8,594.123,305.199,594.533z M295.359,595.549
								c-0.41-0.749-0.58-1.904-1.301-2.824l-0.949-0.524C292.8,594.156,294.48,595.607,295.359,595.549z M332.242,575.103
								c-0.062,0.985,2.338,3.567,2.932,2.305l1.283,4.103c-1.219-2.546-3.012-1.3-3.346-1.449
								C331.125,576.64,332.58,577.8,332.242,575.103z M380.849,552.725c-1.252-0.868-1.869,3.326-5.02-1.033
								C378.181,557.272,380.275,554.476,380.849,552.725z M377.939,547.53c0.316-0.01,0.525-0.089,0.699-0.175
								c1.305,0.52,3.547,4.184,3.492,1.421c-0.91-0.749-0.633,0.772-1.541,0.019c-1.385-2.308-1.291-1.772-1.951-1.438
								C378.353,547.246,378.099,547.228,377.939,547.53z M353.642,561.528l-2.711-3.012l-1.18,1.018L353.642,561.528z
								 M335.914,562.693c1.102,1.98-0.447,2.782-1.26,1.929c1.387,2.627,2.283,1.79,3.26,1.669
								c0.217,0.165,0.457,0.214,0.719,0.071c-0.256-0.106-0.482-0.108-0.719-0.071c-0.615-0.474-1.062-1.946-1.521-2.886
								l0.031-0.987l-1.498-0.163L335.914,562.693z M308.652,571.381c-0.068,2.538-0.506,1.811-1.455,1.319
								C306.97,571.546,307.695,570.893,308.652,571.381z M342.416,556.558c-0.885,2.091,2.793,3.626,2.434,5.438l0.68-0.689
								c0.104,3.48-2.48-2.521-3.006-1.259l0.355-0.838c-0.803-2.787-1.834-1.256-2.965-3.213
								C340.101,554.592,342.757,555.721,342.416,556.558z M306.429,570.242c-0.498,3.331-2.459-2.315-3.607-2.421
								C303.105,564.908,304.943,569.996,306.429,570.242z M326.951,552.691l-0.146-0.562l1.945,0.913l0.145,0.547L326.951,552.691z
								"/>
							<path d="M315.57,598.664c-0.279,0.504-0.58,0.554-0.895,0.431C314.914,598.849,315.195,598.664,315.57,598.664z"/>
							<path d="M393.308,561.985c-0.383-0.664-0.469-1.09-0.428-1.421C393.101,560.95,393.271,561.4,393.308,561.985z"/>
							<path d="M397.359,561.518l0.121-0.062l0.242,0.155L397.359,561.518z"/>
							<path d="M466.83,455.318c3.621-0.928,0.621,0.865,0.65,1.534C467.449,456.145,464.882,455.887,466.83,455.318z"/>
							<path d="M460.566,460.179c1.107-0.262,1.879-0.74,2.238-1.377C462.882,459.219,462.466,459.662,460.566,460.179z"/>
							<path d="M462.365,456.283c0.811,0.98,0.807,1.85,0.439,2.519C462.662,458.14,461.396,457.572,462.365,456.283z"/>
							<path d="M458.865,473.088c2.43-0.006,1.643-1.857,1.656-1.836c1.127,3.803,4.219,0.588,5.939,0.678
								C465.105,473.84,462.464,473.066,458.865,473.088z"/>
							<path d="M456.359,476.63c0.084-0.304,0.123-0.624-0.107-0.973C456.673,476.151,456.607,476.435,456.359,476.63z"/>
							<path d="M457.941,478.558c-0.947,0.82-3.436,0.158-5.416-0.205c-1.18-1.875,2.936-0.994,3.834-1.723
								C456.164,477.387,455.562,477.953,457.941,478.558z"/>
							<path d="M449.06,515.011c0.383-0.026,0.793-0.534,1.891,0.36l-1.252,1.549C448.552,516.989,449.029,515.498,449.06,515.011z"
								/>
							<path d="M439.232,515.815c-1.191,0.939,2.016,2.857,0.875,2.854l-3.449-3.345L439.232,515.815z"/>
							<path d="M421.798,498.797l0.615,0.044l-0.426,0.202L421.798,498.797z"/>
							<path d="M437.628,524.407l4.561,3.001C440.275,527.379,437.263,524.384,437.628,524.407z"/>
							<path d="M435.951,531.112l1.799,0.553l-3.178,0.806L435.951,531.112z"/>
							<path d="M428.994,533.99l0.572,1.017l-2.326,0.275L428.994,533.99z"/>
							<path d="M365.294,572.72c-2.422-3.826,1.041-3.605,1.213-5.047C368.767,572.923,363.556,567.157,365.294,572.72z"/>
							<path d="M317.167,595.797l2.982-0.128C318.816,598.145,319.591,595.914,317.167,595.797z"/>
						</g>
					</g>
				</g>
			</g>
		</g>
		<path stroke="#FFFFFF" stroke-width="4" d="M197.35,546.462c-4.667,5.334-7.667,24.668-12.328,27.885
			c-45.466,31.373-67.874,61.57-59.225-19.707c12.47-117.188,65.936-213.84,147.271-213.84c81.334,0,135.604,96.537,147.268,213.84
			c7.824,78.688-13.715,54.06-59.986,24.824c-3.166-2.002-6.332-26.502-10.166-30.668"/>
		<path fill="none" stroke="#FFFFFF" stroke-width="10" d="M164.682,453.794c14.321-4.354,27.516-11.607,41.972-15.598
			c6.522-1.802,15.232-7.093,21.296-7.505c-5.258,7.011-14.331,10.859-20.404,17.16c10.128,0.853,20.413-6.18,29.759-9.059
			c10.93-3.365,23.096-3.818,34.467-4.367c-8.555,4.822-17.26,9.33-25.822,14.08c9.746-0.164,18.949-4.096,28.701-4.717
			c7.932-0.502,16.193-0.24,24.137,0.069c-1.76,2.334-5.16,3.438-7.895,4.191c7.951,1.289,17.73-1.785,25.676-2.33
			c7.861-0.539,15.848-0.811,23.693-1.111c-5.441,3.037-11.439,4.808-16.844,7.834c12.666,0.168,29.943-3.555,41.896,0.636
			c-0.4,0.559-0.914,2.397-1.635,3.246c5.389,0.789,10.896,0.932,16.334,0.801"/>
		<path fill="none" stroke="#FFFFFF" stroke-width="6" d="M129.349,540.46c3.84,0.274,7.664-0.578,11.362-0.471
			c-0.106,3.37-0.587,6.782-2.113,9.838c5.509-1.084,10.827-3.246,16.452-3.718c-0.354,1.005,0.188,3.479-0.435,4.884
			c3.75,0.731,13.938,0.846,16.372,3.983c0.984,1.269,0.697,5.158,1.026,6.816"/>
		<path fill="none" stroke="#FFFFFF" stroke-width="6" d="M368.681,572.46c0.764-3.228,2.914-5.334,4.627-8.236
			c2.59,0.26,3.682,3.035,4.689,4.922c4.062-5.522,7.652-11.502,10.701-17.631c0.271,0.564,2.254,2.244,2.635,3.064
			c0.877-1.564,2.957-3.074,4.133-4.599c3.398,2.812,5.197,6.785,7.938,10.058c1.283-1.338,2.557-3.66,3.207-5.758
			c0.98,0.959,2.822,2.469,3.402,3.514"/>
		<path stroke="#FFFFFF" stroke-width="4" d="M187.017,573.796c10.333,2.332,92.999,42,100.333,46
			c7.424,4.049,40.5,27.318,40.5,43.334s-46,24-65.832,17.332c-11.334-2.666-99.454-48.484-98-50"/>
		<path stroke="#FFFFFF" stroke-width="4" d="M356.683,574.796c-10.334,2.334-97.334,44.5-104.667,48.5
			c-7.424,4.049-40.5,27.32-40.5,43.334c0,16.018,46,24,65.833,17.334c11.332-2.666,99.453-48.486,98-50"/>
	</g>
</g>
<path stroke="#000000" d="M187.972,195.539c-11.766-12.705-23.438-28.85-27.1-46.017c-1.706-7.994-10.152-43.796-2.765-49.736
	c4.238-3.405,17.079,5.889,21.129,7.956c8.552,4.366,15.285,13.397,25.42,12.875c13.222-0.682,27.261-6.218,39.959-9.564
	c14.507-3.822,19.203-16.971,34.435-19.13c-2.021,2.126-3.568,8.022-4.889,10.203c3.646-0.174,14.365-6.027,18.225-6.076
	c-0.572,1.354-1.557,7.237-2.072,8.626c6.992,0.347,15.949,2.186,22.531,4.676c5.32,2.012,11.117,7.271,17.854,4.463
	c10.723-4.467,19.98-33.795,32.309-31.882c10.84,4.039,9.564,48.761,9.564,62.703c0,13.295-2.934,41.66-9.99,48.461"/>
<path stroke="#000000" d="M193.991,178.99c-2.416,13.525-67.63,144.92,12.561,177.768c20.288,9.662,53.11,30.916,70.528,30.916
	c18.355,0,48.307-20.289,69.561-34.779c72.459-53.139,12.076-162.311,9.662-171.973"/>
<g>
	<g>
		
			<radialGradient id="SVGID_1_" cx="773.3354" cy="533.6211" r="96.4795" gradientTransform="matrix(1 0 0 -1 -498.4395 837.0371)" gradientUnits="userSpaceOnUse">
			<stop  offset="0.3034" style="stop-color:#F0BA66"/>
			<stop  offset="0.5897" style="stop-color:#EEB966"/>
			<stop  offset="0.7533" style="stop-color:#E5B262"/>
			<stop  offset="0.8856" style="stop-color:#D9A85D"/>
			<stop  offset="1" style="stop-color:#C69A55"/>
		</radialGradient>
		<path fill="url(#SVGID_1_)" d="M374.716,232.416c-1.062,19.342,31.65,59.303-28.076,120.479
			c-21.254,14.49-52.461,34.143-70.818,34.143c-17.418,0-49.292-19.863-69.27-30.277c-56.113-25.508-36.54-92.461-34.627-108.826
			l-0.832,0.424c3.614-2.977,6.068-5.637,9.149-8.035c4.078-3.176,9.767-7.395,14.857-8.615c-1.236,1.023-2.147,2.344-3.297,3.463
			c-1.269,1.234-3.517,2.211-3.655,3.918c3.711-1.129,7.095-2.949,10.734-4.277c4.64-1.691,9.509-2.562,14.242-3.939
			c4.376-1.271,8.617-2.701,13.044-3.682c0.167,3.205-1.961,6.299-2.332,9.344c5.77-1.574,11.268-3.42,17.182-4.621
			c7.754-1.572,15.515-2.123,23.294-3.336c-0.531,2.494-3.252,5.959-5.617,7.355c3.203-1.438,6.654-2.314,10.041-3.184
			c7.469-1.92,14.885-3.832,22.299-5.963c7.445-2.139,14.947-4.549,22.58-5.953c1.16-0.213,6.338-1.338,8.227-0.963
			c-1.309,1.811-3.057,3.117-4.801,4.479c-2.783,2.168-5.559,5.006-8.689,6.67c1.377,0.307,2.824,0.031,4.355-0.205
			c5.271-0.814,10.482-2.086,15.74-3c9.094-1.582,19.197-3.405,28.461-2.895c1.361,2.205-4.025,8.717-5.033,10.895
			c7.604,0.498,14.715-4.525,22.418-4.033L374.716,232.416z"/>
	</g>
</g>
<path fill="none" stroke="#000000" stroke-width="4" d="M193.991,178.99c-2.416,13.525-67.63,144.92,12.561,177.768
	c20.288,9.662,53.11,30.916,70.528,30.916c18.355,0,48.307-20.289,69.561-34.779c72.459-53.139,12.076-162.311,9.662-171.973"/>
<path stroke="#000000" stroke-width="4" d="M296.091,303.022c0,11.473-9.342,26.756-21.08,26.756s-21.431-15.283-21.431-26.756
	c0-11.473,9.517-8.326,21.257-8.326C286.576,294.696,296.091,291.549,296.091,303.022z"/>
<g>
	<g>
		<g>
			<path fill="none" d="M346.427,271.739c29.77-0.85,59.799-0.213,89.609,0.604c8.646,0.238,16.41,1.207,24.527,3.859"/>
			<g>
				<g>
					<g>
						<path d="M451.496,273.598l-1.129-0.227l0.553,0.192C451.16,273.637,451.298,273.61,451.496,273.598z"/>
						<path d="M449.322,273.159l-0.199-0.04l-0.174-0.011L449.322,273.159z"/>
						<path d="M447.333,272.937l1.016,0.105C448.064,272.991,447.728,272.953,447.333,272.937z"/>
						<path d="M448.904,273.202c-0.115-0.058-0.166-0.106,0.037-0.095l0.008,0.001l-0.6-0.066L448.904,273.202z"/>
						<path d="M448.904,273.202c0.113,0.057,0.291,0.124,0.354,0.156L448.904,273.202z"/>
						<path d="M448.281,273.956c-0.197,0.004-0.115-0.229-0.518-0.22c-0.936-0.038-1.736-0.02-2.596-0.117
							c-0.398,0.009-0.99-0.326-1.389-0.317c-0.928-0.081-3.324,0.123-1.926,0.187c2.094,0.146,3.453,0.275,5.334,0.431
							c1.543,0.022,2.99,0.295,4.555,0.47l1.24,0.26c-0.523-0.137-1.062-0.277-1.658-0.427
							C450.542,274.012,449.531,274.119,448.281,273.956z"/>
						<path d="M459.671,275.758c-0.201-0.028-0.6-0.084-0.6-0.084c-0.809-0.405-1.732-0.594-2.65-0.78l0.369,0.229
							c0.52,0.131,0.598,0.083,0.15-0.096c1.014,0.434,1.994,0.732,3.014,0.991C459.912,275.937,459.949,275.869,459.671,275.758z"
							/>
						<path d="M460.556,276.164l-0.602-0.148l0.016,0.026l0.604,0.132L460.556,276.164z"/>
						<path d="M443.097,272.678c-2.641-0.21-5.141-0.309-7.572-0.45c-0.188,0.042-0.322,0.093-0.572,0.059l-0.57-0.1l-1.062-0.039
							l-0.379,0.009l-0.008,0.001c-0.199,0.022-0.145,0.061-0.021,0.099l0.369,0.096c-0.066-0.021-0.25-0.058-0.369-0.096
							l-0.57-0.082l-1.016-0.016c0.395-0.018,0.729-0.01,1.016,0.016l0.602-0.018l0.176-0.017l-2.432-0.095l-0.506,0.007
							c-0.586,0.018-1.172,0.035-1.531-0.09l-0.434-0.018l0.082,0.023l-0.16-0.026l-1.836-0.077l-1.219,0.106
							c0,0-0.275-0.086-0.412-0.13c-0.168,0.056-0.408,0.089-0.686,0.103l0.906,0.223c0.412,0.13,0.926-0.218,1.41,0.021
							c-0.484-0.239-0.998,0.109-1.41-0.021l-0.906-0.223c-0.582,0.028-1.332-0.033-1.932-0.165c0.75-0.083,1.381,0.031,1.932,0.165
							c0.277-0.013,0.518-0.047,0.686-0.103c0.137,0.043,0.412,0.13,0.412,0.13l1.219-0.106l-3.648-0.152
							c-7.963-0.378-15.314-0.456-23.584-0.703c-4.477-0.147-8.779-0.327-13.006-0.454c-8.42-0.266-16.1-0.094-24.621-0.482
							c-3.268-0.157-9.332,0.061-12.482,0.139c-4.209,0.47-1.994,1.462-1.793,1.517c2.615,0.834,4.629,0.312,9.914,0.739
							c-3.602-0.232,2.643-0.61,6.045-0.066c4.914,0.779,11.906,0.109,17.967,0.353c1.516,0.062,3.121,0.025,4.934,0.048
							c9.381,0.323,18.107,0.178,27.977,0.385c2.613,0.062,4.918-0.103,7.123-0.169c1.607-0.001,3.328,0.159,4.635,0.191
							c2.055,0.049,3.83,0.009,5.529-0.054c-1.898-0.003-3.283,0.027-5.396,0.01c-1.41-0.021,0.986-0.284,1.922-0.328
							c0.4-0.044,1.021,0.238,1.42,0.194c0.871,0.021,1.672-0.066,2.605-0.111c0.398-0.044,0.346,0.195,0.545,0.174
							c1.273-0.023,2.262-0.307,3.072-0.22c0.619,0.044,1.168,0.121,1.705,0.183l1.039,0.069l0.688-0.024
							c-0.178-0.083-0.24-0.176-0.299-0.27c0.334,0.031,0.803,0.108,1.139,0.139c-0.336-0.031-0.805-0.108-1.139-0.139
							c0.059,0.094,0.121,0.187,0.299,0.27c1.67-0.049,3.607-0.121,5.393,0.027l-0.023-0.024c-1.041-0.095-2.053-0.247-3.129-0.423
							c0.465,0.077,0.402,0.141-0.137,0.127l-0.402-0.141c0.938-0.017,1.879-0.056,2.74,0.24c0,0,0.402-0.009,0.604-0.013
							c0.291,0.066,0.27,0.14,0.324,0.21l0.619,0.051C444.455,272.987,443.099,272.678,443.097,272.678z"/>
						<path d="M432.316,272.167l0.51-0.006l-2.037-0.083C431.142,272.203,431.726,272.185,432.316,272.167z"/>
					</g>
				</g>
			</g>
		</g>
	</g>
	<g>
		<g>
			<path fill="none" d="M347.703,288.317c20.154-0.061,39.615,1.486,59.5,4.15c23.242,3.113,44.773,9.742,67.393,16.254"/>
			<g>
				<g>
					<g>
						<path d="M464.49,305.455l-1.238-0.369l0.6,0.262C464.113,305.451,464.269,305.441,464.49,305.455z"/>
						<path d="M462.105,304.742l-0.219-0.065l-0.193-0.033L462.105,304.742z"/>
						<path d="M459.929,304.18l1.104,0.308C460.726,304.381,460.363,304.275,459.929,304.18z"/>
						<path d="M461.634,304.732c-0.125-0.073-0.176-0.126,0.051-0.089l0.008,0.001l-0.658-0.156L461.634,304.732z"/>
						<path d="M461.634,304.732c0.119,0.07,0.312,0.16,0.379,0.199L461.634,304.732z"/>
						<path d="M460.855,305.389c-0.221-0.036-0.104-0.252-0.551-0.324c-1.031-0.226-1.924-0.373-2.869-0.642
							c-0.447-0.069-1.055-0.517-1.498-0.585c-1.033-0.219-3.713-0.635-2.18-0.221c2.305,0.61,3.816,0.96,5.885,1.515
							c1.697,0.388,3.336,0.74,5.068,1.148l1.373,0.42c-0.578-0.205-1.172-0.415-1.83-0.641
							C463.394,305.744,462.246,305.734,460.855,305.389z"/>
						<path d="M473.58,308.233c-0.225-0.037-0.668-0.109-0.668-0.109c-0.916-0.444-1.947-0.672-2.977-0.9l0.416,0.245
							c0.584,0.155,0.668,0.11,0.168-0.089c1.137,0.48,2.244,0.824,3.387,1.129C473.855,308.425,473.892,308.358,473.58,308.233z"/>
						<path d="M474.582,308.682l-0.676-0.175l0.021,0.028l0.676,0.159L474.582,308.682z"/>
						<path d="M455.285,303.091c-2.881-0.791-5.58-1.587-8.232-2.299c-0.215-0.009-0.375,0.004-0.639-0.095l-0.605-0.249
							l-1.152-0.32l-0.416-0.092l-0.01-0.001c-0.225-0.031-0.172,0.021-0.047,0.091l0.385,0.192
							c-0.068-0.04-0.262-0.124-0.385-0.192l-0.605-0.232l-1.107-0.286c0.436,0.087,0.801,0.185,1.107,0.286l0.662,0.142l0.197,0.03
							l-2.643-0.739l-0.557-0.128c-0.646-0.129-1.297-0.254-1.666-0.465l-0.473-0.125l0.086,0.043l-0.17-0.065l-2.004-0.526
							l-1.365-0.196c0,0-0.283-0.152-0.426-0.228c-0.195,0.014-0.467-0.013-0.773-0.067l0.951,0.44
							c0.424,0.228,1.062,0.014,1.545,0.366c-0.48-0.352-1.121-0.138-1.545-0.366l-0.951-0.44c-0.646-0.11-1.457-0.371-2.096-0.624
							c0.85,0.08,1.518,0.363,2.096,0.624c0.309,0.055,0.578,0.081,0.773,0.067c0.143,0.076,0.426,0.228,0.426,0.228l1.365,0.196
							l-3.984-1.044c-8.727-2.167-16.883-3.722-26.119-5.125c-5.006-0.669-9.814-1.352-14.531-2.056
							c-9.436-1.193-18.098-1.563-27.678-2.578c-3.674-0.419-10.537-0.313-14.094-0.379c-4.768,0.32-2.293,1.391-2.07,1.452
							c2.918,0.926,5.201,0.477,11.127,1.091c-4.039-0.324,3.012-0.612,6.797,0.292c5.469,1.174,13.365,0.892,20.133,1.827
							c1.689,0.209,3.494,0.328,5.521,0.527c10.457,1.569,20.254,2.158,31.08,4.533c2.877,0.577,5.439,0.954,7.885,1.356
							c1.779,0.327,3.623,0.946,5.053,1.285c2.242,0.562,4.205,0.921,6.074,1.325c-2.072-0.518-3.605-0.791-5.918-1.335
							c-1.543-0.365,1.143-0.036,2.18,0.15c0.451,0.056,1.07,0.483,1.518,0.537c0.953,0.227,1.846,0.363,2.877,0.566
							c0.447,0.063,0.336,0.282,0.559,0.314c1.396,0.316,2.543,0.302,3.408,0.601c0.666,0.214,1.262,0.411,1.842,0.604l1.131,0.323
							l0.766,0.152c-0.178-0.126-0.227-0.233-0.271-0.34c0.361,0.115,0.859,0.31,1.225,0.425c-0.365-0.116-0.863-0.311-1.225-0.425
							c0.045,0.106,0.094,0.213,0.271,0.34c1.854,0.373,3.982,0.838,5.959,1.284l-0.021-0.028c-1.145-0.295-2.25-0.628-3.391-1.099
							c0.496,0.194,0.414,0.24-0.174,0.09l-0.416-0.241c1.035,0.219,2.066,0.438,2.98,0.874c0,0,0.449,0.07,0.674,0.104
							c0.311,0.122,0.273,0.19,0.326,0.271l0.68,0.17C456.738,303.658,455.285,303.091,455.285,303.091z"/>
						<path d="M443.552,299.879l0.559,0.129l-2.213-0.623C442.259,299.602,442.904,299.74,443.552,299.879z"/>
					</g>
				</g>
			</g>
		</g>
	</g>
	<g>
		<g>
			<path fill="none" d="M348.341,301.707c6.146,4.299,14.895,5.816,21.826,7.994c14.854,4.666,30.184,8.613,44.418,15.016
				c10.006,4.5,19.689,10.289,30.041,13.336"/>
			<g>
				<g>
					<g>
						<path d="M436.777,334.869l-0.939-0.421l0.439,0.285C436.472,334.847,436.601,334.845,436.777,334.869z"/>
						<path d="M434.968,334.055l-0.166-0.075l-0.152-0.042L434.968,334.055z"/>
						<path d="M433.302,333.397l0.842,0.356C433.914,333.633,433.636,333.513,433.302,333.397z"/>
						<path d="M434.585,334.02c-0.088-0.077-0.119-0.131,0.059-0.083l0.006,0.002l-0.506-0.186L434.585,334.02z"/>
						<path d="M434.585,334.02c0.086,0.075,0.227,0.171,0.271,0.213L434.585,334.02z"/>
						<path d="M433.828,334.615c-0.176-0.046-0.039-0.249-0.391-0.344c-0.805-0.274-1.494-0.499-2.211-0.828
							c-0.35-0.104-0.75-0.586-1.096-0.689c-0.799-0.287-2.871-0.958-1.723-0.408c1.734,0.803,2.9,1.258,4.473,1.952l3.938,1.389
							l1.066,0.438l-1.4-0.678C435.839,335.095,434.906,335.024,433.828,334.615z"/>
						<path d="M443.837,337.598c-0.178-0.03-0.533-0.09-0.533-0.09c-0.707-0.414-1.523-0.61-2.346-0.809l0.314,0.229
							c0.463,0.138,0.537,0.091,0.148-0.091c0.881,0.442,1.756,0.752,2.66,1.024C444.046,337.78,444.082,337.713,443.837,337.598z"
							/>
						<path d="M444.619,338.015l-0.535-0.155l0.016,0.027l0.535,0.139L444.619,338.015z"/>
						<path d="M429.763,331.981c-2.152-1.033-4.166-2.034-6.121-3.031c-0.172-0.033-0.303-0.038-0.492-0.163l-0.426-0.306
							l-0.852-0.435l-0.314-0.132l-0.008-0.001c-0.174-0.055-0.145,0.001-0.061,0.081l0.266,0.226
							c-0.047-0.045-0.182-0.146-0.266-0.226l-0.434-0.287l-0.826-0.393c0.33,0.13,0.604,0.263,0.826,0.393l0.5,0.207l0.152,0.05
							l-1.955-0.991l-0.418-0.183c-0.488-0.2-0.975-0.408-1.225-0.647l-0.352-0.172l0.059,0.051l-0.121-0.081l-1.488-0.728
							l-1.051-0.339c0,0-0.193-0.178-0.291-0.267c-0.158-0.011-0.373-0.06-0.609-0.138l0.666,0.517
							c0.289,0.266,0.852,0.13,1.156,0.522c-0.305-0.392-0.867-0.256-1.156-0.522l-0.666-0.517c-0.502-0.166-1.105-0.47-1.561-0.791
							c0.662,0.171,1.148,0.486,1.561,0.791c0.236,0.079,0.451,0.127,0.609,0.138c0.098,0.089,0.291,0.267,0.291,0.267l1.051,0.339
							l-2.982-1.397c-6.537-3.018-12.814-5.211-19.885-7.583c-3.828-1.287-7.512-2.518-11.113-3.746
							c-7.146-2.423-13.896-4.267-21.096-6.819c-2.76-0.959-7.781-2.655-10.084-4.037c-3.266-1.54-2.299,0.263-2.143,0.426
							c1.527,2,3.414,2.531,7.752,4.631c-2.992-1.339,2.445,0.296,5.248,1.659c4.059,2.002,10.197,3.118,15.402,4.966
							c1.291,0.451,2.691,0.829,4.25,1.318c8.004,2.744,15.623,4.635,23.861,7.834c2.191,0.817,4.184,1.372,6.035,2.055
							c1.338,0.531,2.719,1.218,3.77,1.731c1.67,0.77,3.146,1.367,4.561,1.951c-1.551-0.717-2.701-1.182-4.434-1.944
							c-1.148-0.52,0.924,0.09,1.713,0.383c0.35,0.104,0.746,0.577,1.09,0.686c0.703,0.343,1.396,0.56,2.18,0.867
							c0.346,0.108,0.201,0.306,0.375,0.36c1.051,0.45,1.979,0.569,2.604,0.952c0.484,0.28,0.916,0.536,1.338,0.785l0.836,0.431
							l0.59,0.22c-0.117-0.139-0.131-0.246-0.143-0.352l0.895,0.526l-0.895-0.526c0.012,0.106,0.025,0.213,0.143,0.352
							c1.422,0.531,3.029,1.204,4.547,1.786l-0.014-0.029c-0.867-0.375-1.691-0.796-2.506-1.361c0.359,0.234,0.281,0.271-0.16,0.07
							l-0.281-0.271c0.789,0.307,1.568,0.625,2.219,1.118c0,0,0.35,0.104,0.523,0.156c0.229,0.143,0.184,0.206,0.207,0.288
							l0.516,0.221C430.82,332.646,429.763,331.98,429.763,331.981z"/>
						<path d="M421.041,327.69l0.42,0.183l-1.639-0.834C420.062,327.285,420.55,327.487,421.041,327.69z"/>
					</g>
				</g>
			</g>
		</g>
	</g>
</g>
<g>
	<g>
		<g>
			<path fill="none" d="M199.13,266c-29.771-0.85-59.797-0.215-89.607,0.604c-8.647,0.238-16.413,1.207-24.531,3.859"/>
			<g>
				<g>
					<g>
						<path d="M94.186,268.513l1.122-0.202l-0.577,0.023C94.481,268.354,94.362,268.43,94.186,268.513z"/>
						<path d="M96.349,268.126l0.198-0.035l0.165-0.053L96.349,268.126z"/>
						<path d="M98.303,267.784l-1.006,0.124C97.585,267.894,97.918,267.857,98.303,267.784z"/>
						<path d="M96.726,267.932c0.127,0.012,0.188,0.039-0.006,0.103l-0.008,0.002l0.585-0.129L96.726,267.932z"/>
						<path d="M96.726,267.932c-0.123-0.011-0.311-0.008-0.379-0.016L96.726,267.932z"/>
						<path d="M97.097,267.01c0.192-0.049,0.182,0.194,0.57,0.096c0.924-0.173,1.709-0.37,2.582-0.469
							c0.394-0.099,1.049,0.095,1.438-0.003c0.923-0.217,3.303-0.659,1.888-0.563c-2.123,0.22-3.497,0.481-5.394,0.729
							c-1.539,0.216-2.975,0.72-4.521,1.069l-1.264,0.217c0.545-0.066,1.104-0.135,1.718-0.215
							C94.926,267.785,95.841,267.283,97.097,267.01z"/>
						<path d="M85.996,270.377c0.184-0.08,0.55-0.238,0.55-0.238c0.903-0.073,1.78-0.389,2.662-0.705l-0.431-0.004
							c-0.513,0.158-0.554,0.238-0.082,0.161c-1.084,0.152-2.082,0.407-3.086,0.713C85.692,270.349,85.701,270.424,85.996,270.377z"
							/>
						<path d="M85.021,270.49l0.589-0.186l-0.028-0.013l-0.581,0.199H85.021z"/>
						<path d="M102.472,267.091c2.637-0.228,5.135-0.304,7.566-0.399c0.186-0.051,0.316-0.109,0.566-0.087l0.576,0.071l1.062-0.014
							l0.378-0.028l0.008-0.001c0.198-0.032,0.142-0.068,0.018-0.1l-0.376-0.078c0.069,0.019,0.253,0.046,0.376,0.078l0.573,0.054
							l1.016-0.035c-0.393,0.038-0.729,0.046-1.016,0.035l-0.599,0.048l-0.176,0.026l2.434-0.027l0.505-0.032
							c0.584-0.046,1.169-0.093,1.534,0.014l0.435-0.003l-0.084-0.02l0.161,0.019l1.837-0.015l1.213-0.166
							c0,0,0.279,0.073,0.417,0.109c0.165-0.064,0.403-0.11,0.679-0.137l-0.916-0.178c-0.417-0.109-0.912,0.264-1.407,0.05
							c0.495,0.214,0.99-0.159,1.407-0.05l0.916,0.178c0.581-0.058,1.333-0.033,1.938,0.068c-0.746,0.12-1.383,0.038-1.938-0.068
							c-0.274,0.027-0.514,0.072-0.679,0.137c-0.138-0.037-0.417-0.109-0.417-0.109l-1.213,0.166l3.65-0.029
							c7.971-0.072,15.316-0.204,23.586-0.225c4.477-0.009,8.779,0.017,13.001,0.171c8.406,0.294,16.087-0.177,24.571,0.646
							c3.254,0.268,9.303,0.255,12.444,0.283c4.22-0.327,2.07-1.394,1.87-1.455c-2.57-0.921-4.608-0.468-9.881-1.074
							c3.593,0.354-2.663,0.52-6.054-0.139c-4.909-1.053-11.933-0.258-17.999-0.483c-1.519-0.056-3.128-0.01-4.943-0.023
							c-9.409-0.3-18.134,0.331-28.017,0.396c-2.617,0.068-4.913,0.348-7.113,0.525c-1.607,0.082-3.334,0.007-4.642,0.04
							c-2.057,0.053-3.826,0.182-5.521,0.33c1.896-0.091,3.277-0.19,5.39-0.279c1.409-0.05-0.973,0.332-1.903,0.423
							c-0.398,0.063-1.032-0.187-1.43-0.123c-0.871,0.022-1.665,0.149-2.597,0.241c-0.396,0.063-0.356-0.178-0.555-0.146
							c-1.271,0.086-2.242,0.418-3.057,0.373c-0.62-0.028-1.18-0.024-1.726-0.035l-1.05,0.04l-0.691,0.097
							c0.188,0.064,0.259,0.15,0.327,0.237c-0.337,0.004-0.812-0.024-1.154-0.02c0.342-0.005,0.817,0.023,1.154,0.02
							c-0.068-0.087-0.14-0.173-0.327-0.237c-1.672,0.234-3.603,0.416-5.377,0.77l0.028,0.019c1.041-0.145,2.064-0.253,3.163-0.138
							c-0.476-0.028-0.421-0.098,0.117-0.14l0.421,0.098c-0.934,0.119-1.858,0.214-2.753,0.166c0,0-0.395,0.099-0.591,0.148
							c-0.297,0-0.29-0.076-0.357-0.133l-0.617,0.089C101.09,267.093,102.473,267.091,102.472,267.091z"/>
						<path d="M113.245,266.593l-0.508,0.032l2.039-0.019C114.416,266.499,113.832,266.546,113.245,266.593z"/>
					</g>
				</g>
			</g>
		</g>
	</g>
	<g>
		<g>
			<path fill="none" d="M197.855,282.578c-20.155-0.061-39.615,1.484-59.499,4.148c-23.244,3.115-44.772,9.742-67.393,16.256"/>
			<g>
				<g>
					<g>
						<path d="M81.254,300.354l1.243-0.346l-0.646,0.097C81.573,300.157,81.446,300.249,81.254,300.354z"/>
						<path d="M83.65,299.69l0.221-0.061l0.182-0.074L83.65,299.69z"/>
						<path d="M85.791,299.01l-1.1,0.327C85.01,299.263,85.374,299.159,85.791,299.01z"/>
						<path d="M84.056,299.448c0.144-0.004,0.215,0.014,0.004,0.104l-0.008,0.003l0.641-0.218L84.056,299.448z"/>
						<path d="M84.056,299.448c-0.14,0.004-0.351,0.032-0.428,0.033L84.056,299.448z"/>
						<path d="M84.367,298.476c0.206-0.087,0.223,0.158,0.639-0.018c0.995-0.356,1.829-0.71,2.773-0.98
							c0.419-0.174,1.173-0.108,1.587-0.28c0.997-0.35,3.508-1.388,1.979-0.945c-2.289,0.68-3.771,1.156-5.815,1.796
							c-1.645,0.574-3.221,1.147-4.904,1.723l-1.388,0.375c0.6-0.134,1.214-0.272,1.893-0.43
							C82.025,299.528,83.005,298.925,84.367,298.476z"/>
						<path d="M72.082,302.854c0.209-0.088,0.625-0.265,0.625-0.265c1.01-0.112,2.004-0.471,2.995-0.828l-0.481,0.015
							c-0.576,0.181-0.625,0.265-0.095,0.166c-1.219,0.201-2.337,0.501-3.468,0.853C71.747,302.838,71.752,302.915,72.082,302.854z"
							/>
						<path d="M70.996,303.009l0.663-0.213l-0.031-0.013l-0.655,0.226H70.996z"/>
						<path d="M90.315,297.497c2.875-0.808,5.581-1.582,8.243-2.25c0.191-0.099,0.322-0.19,0.604-0.235l0.646-0.084l1.16-0.296
							l0.406-0.127l0.008-0.003c0.211-0.084,0.14-0.104-0.003-0.102l-0.43,0.024c0.079,0,0.287-0.022,0.43-0.024l0.64-0.101
							l1.104-0.303c-0.422,0.141-0.786,0.238-1.104,0.303l-0.645,0.206l-0.187,0.072l2.656-0.672l0.547-0.166
							c0.63-0.191,1.264-0.378,1.689-0.364l0.477-0.11l-0.096,0.001l0.18-0.021l2.018-0.465l1.299-0.46c0,0,0.321,0.003,0.48,0.005
							c0.168-0.103,0.42-0.206,0.719-0.3l-1.045,0.051c-0.48-0.005-0.948,0.482-1.539,0.394c0.591,0.088,1.059-0.399,1.539-0.394
							l1.045-0.051c0.627-0.193,1.456-0.371,2.146-0.396c-0.801,0.278-1.513,0.37-2.146,0.396c-0.299,0.094-0.551,0.197-0.719,0.3
							c-0.159-0.002-0.48-0.005-0.48-0.005l-1.299,0.46l4.007-0.923c8.778-1.864,16.896-3.467,26.125-4.642
							c5.015-0.53,9.837-1.008,14.568-1.43c9.444-0.632,18.035-1.64,27.612-1.442c3.664,0.006,10.461-0.116,13.993-0.231
							c4.731-0.477,2.287-1.466,2.058-1.521c-2.926-0.83-5.207-0.304-11.179-0.721c4.065,0.262-2.979,0.517-6.83,0.22
							c-5.594-0.655-13.467,0.529-20.299,1c-1.712,0.093-3.52,0.295-5.563,0.458c-10.56,0.953-20.374,2.325-31.34,4.584
							c-2.905,0.588-5.393,1.404-7.8,2.048c-1.772,0.411-3.68,0.802-5.116,1.144c-2.254,0.569-4.189,1.095-6.01,1.704
							c2.056-0.604,3.566-1.005,5.874-1.622c1.543-0.396-1.002,0.564-2.008,0.881c-0.426,0.16-1.18,0.071-1.603,0.231
							c-0.957,0.229-1.797,0.574-2.798,0.908c-0.42,0.167-0.431-0.078-0.641,0.005c-1.375,0.422-2.363,1.004-3.267,1.177
							c-0.685,0.145-1.3,0.271-1.9,0.393l-1.143,0.296l-0.734,0.269c0.219,0.015,0.314,0.082,0.407,0.149
							c-0.367,0.089-0.896,0.182-1.267,0.272c0.371-0.09,0.898-0.184,1.267-0.272c-0.093-0.068-0.188-0.134-0.407-0.149
							c-1.779,0.645-3.844,1.355-5.765,2l0.034,0.013c1.131-0.342,2.251-0.633,3.469-0.823c-0.524,0.092-0.479,0.01,0.103-0.167
							l0.479-0.01c-0.999,0.35-1.993,0.699-3.001,0.802c0,0-0.421,0.174-0.63,0.261c-0.33,0.058-0.335-0.019-0.42-0.062
							l-0.669,0.208C88.779,297.768,90.315,297.497,90.315,297.497z"/>
						<path d="M102.047,294.299l-0.548,0.166l2.229-0.56C103.309,293.896,102.68,294.096,102.047,294.299z"/>
					</g>
				</g>
			</g>
		</g>
	</g>
	<g>
		<g>
			<path fill="none" d="M197.218,295.969c-6.15,4.297-14.896,5.816-21.827,7.992c-14.854,4.666-30.183,8.615-44.417,15.016
				c-10.008,4.502-19.693,10.291-30.041,13.338"/>
			<g>
				<g>
					<g>
						<path d="M109.038,329.743l0.953-0.402l-0.511,0.128C109.266,329.534,109.177,329.631,109.038,329.743z"/>
						<path d="M110.876,328.971l0.169-0.071l0.135-0.082L110.876,328.971z"/>
						<path d="M112.501,328.197l-0.838,0.376C111.91,328.485,112.189,328.365,112.501,328.197z"/>
						<path d="M111.164,328.716c0.115-0.012,0.178,0.002,0.021,0.1l-0.006,0.003l0.483-0.246L111.164,328.716z"/>
						<path d="M111.164,328.716c-0.114,0.012-0.281,0.049-0.345,0.055L111.164,328.716z"/>
						<path d="M111.236,327.76c0.15-0.095,0.21,0.141,0.517-0.05c0.742-0.395,1.339-0.814,2.05-1.142
							c0.301-0.201,0.925-0.199,1.224-0.398c0.736-0.407,2.521-1.655,1.392-1.082c-1.695,0.863-2.793,1.429-4.316,2.199
							c-1.226,0.641-2.401,1.275-3.667,1.921l-1.073,0.391c0.466-0.148,0.954-0.273,1.473-0.471
							C109.525,328.898,110.214,328.263,111.236,327.76z"/>
						<path d="M101.831,332.217c0.164-0.082,0.487-0.246,0.487-0.246c0.814-0.085,1.601-0.414,2.377-0.74l-0.396,0.004
							c-0.454,0.163-0.485,0.244-0.062,0.16c-0.979,0.168-1.864,0.435-2.757,0.753C101.558,332.193,101.566,332.268,101.831,332.217
							z"/>
						<path d="M100.96,332.341l0.522-0.192l-0.025-0.014l-0.518,0.206H100.96z"/>
						<path d="M115.861,326.378c2.145-1.05,4.169-2.031,6.145-2.987c0.131-0.116,0.214-0.218,0.429-0.293l0.501-0.153l0.863-0.412
							l0.298-0.166l0.005-0.004c0.15-0.104,0.088-0.115-0.027-0.098l-0.341,0.069c0.064-0.009,0.229-0.052,0.341-0.069l0.493-0.165
							l0.818-0.409c-0.308,0.18-0.578,0.312-0.818,0.409l-0.471,0.267l-0.133,0.089l1.982-0.929l0.401-0.217
							c0.46-0.258,0.918-0.523,1.266-0.552l0.357-0.158l-0.077,0.012l0.141-0.04l1.513-0.669l0.936-0.586
							c0,0,0.259-0.033,0.388-0.048c0.109-0.12,0.291-0.241,0.514-0.356l-0.832,0.152c-0.39,0.048-0.651,0.569-1.146,0.549
							c0.494,0.02,0.757-0.5,1.146-0.549l0.832-0.152c0.465-0.244,1.104-0.47,1.648-0.575c-0.579,0.356-1.143,0.49-1.648,0.575
							c-0.223,0.115-0.403,0.236-0.514,0.356c-0.129,0.016-0.388,0.048-0.388,0.048l-0.936,0.586l3.021-1.28
							c6.627-2.723,12.853-4.954,19.975-7.105c3.859-1.152,7.595-2.184,11.276-3.143c7.379-1.91,13.797-4.325,21.4-5.733
							c2.916-0.561,8.203-2.578,10.761-4.167c3.205-2.439,0.821-2.181,0.669-2.156c-2.414,0.485-3.732,1.806-8.346,2.917
							c3.133-0.766-2.048,1.353-5.165,1.557c-4.51,0.225-10.442,2.807-15.679,4.176c-1.324,0.337-2.697,0.793-4.269,1.249
							c-8.194,2.151-15.646,4.8-24.046,7.909c-2.225,0.834-4.083,1.815-5.864,2.733c-1.323,0.614-2.82,1.096-3.886,1.615
							c-1.693,0.784-3.111,1.543-4.438,2.318c1.518-0.799,2.623-1.387,4.349-2.224c1.15-0.552-0.677,0.654-1.412,1.071
							c-0.304,0.203-0.938,0.197-1.235,0.404c-0.707,0.345-1.308,0.757-2.034,1.188c-0.3,0.206-0.366-0.028-0.517,0.074
							c-1.012,0.55-1.662,1.221-2.348,1.486l-1.437,0.589l-0.851,0.405l-0.532,0.328c0.182-0.006,0.274,0.048,0.366,0.104
							c-0.277,0.121-0.683,0.26-0.963,0.383c0.28-0.123,0.686-0.262,0.963-0.383c-0.092-0.056-0.186-0.11-0.366-0.104
							c-1.292,0.782-2.789,1.682-4.212,2.449l0.03,0.01c0.846-0.417,1.688-0.798,2.627-1.101c-0.403,0.139-0.385,0.056,0.044-0.17
							l0.387-0.056c-0.729,0.428-1.45,0.87-2.249,1.049c0,0-0.304,0.202-0.454,0.302c-0.256,0.083-0.275,0.01-0.354-0.024
							l-0.498,0.254C114.671,326.766,115.861,326.378,115.861,326.378z"/>
						<path d="M124.589,322.098l-0.402,0.217l1.665-0.775C125.511,321.576,125.052,321.836,124.589,322.098z"/>
					</g>
				</g>
			</g>
		</g>
	</g>
</g>
<path fill="#FFFFFF" stroke="#000000" d="M289.359,295.33c2.941,1.492,5.961,3.822,5.004,7.555c-4.791,1.117-9.02-3.141-5.004-6.916
	"/>
<path stroke="#000000" stroke-width="2" d="M341.115,276.84c1.338-0.215,2.424,0.074,3.4,0.852"/>
<path stroke="#000000" stroke-width="2" d="M343.664,295.545c1.418,0,2.836,0,4.252,0"/>
<path stroke="#000000" stroke-width="2" d="M356.417,278.541c-0.043,0.986,0.244,1.799,0.85,2.551"/>
<path stroke="#000000" stroke-width="2" d="M363.22,297.246c0.254,1.256,0.846,2.436,1.699,3.4"/>
<path stroke="#000000" stroke-width="2" d="M352.167,310.848c-0.199,1.303,0.088,2.41,0.85,3.402"/>
<path stroke="#000000" stroke-width="2" d="M197.431,273.44c0.039-0.416,1.014,1.75,1.699,2.551"/>
<path stroke="#000000" stroke-width="2" d="M203.382,287.893c0.809,0.676,1.653,1.521,2.551,2.551"/>
<path stroke="#000000" stroke-width="2" d="M189.778,291.295c-1.684-0.459-2.726-0.061-2.551,1.699"/>
<path stroke="#000000" stroke-width="2" d="M197.431,305.746c0.455,1.293,1.312,2.221,2.55,2.551"/>
<path fill="none" stroke="#FFFFFF" stroke-width="4" d="M219.267,188.094c8.899-13.011,28.394-15.13,43.586-4.738"/>
<path fill="none" stroke="#FFFFFF" stroke-width="4" d="M322.853,186.761c-8.898-13.011-28.395-15.13-43.588-4.737"/>
<path fill="none" stroke="#000000" stroke-width="4" d="M208.904,318.159c11.288,59.462,112.822,60.899,131.861-1.404"/>
</svg>
